<svg xmlns="http://www.w3.org/2000/svg" viewBox="0 0 200 200" width="200" height="200">
  <!--
    Camomille bloom (CLASSIC) — exact match to the live site bloom, fully editable.
    Rounded-dome arc petals, no spiral, no edge stroke. Sibling option: flower-spiral.svg.
  -->
  <defs>
    <linearGradient id="petalFill" x1="0.396" y1="0.011" x2="0.604" y2="0.989">
      <stop offset="0.05" stop-color="#FFFFFF"/>
      <stop offset="0.50" stop-color="#FCE2BE"/>
      <stop offset="1" stop-color="#F0BD72"/>
    </linearGradient>
    <linearGradient id="centerFill" x1="0.25" y1="0.067" x2="0.75" y2="0.933">
      <stop offset="0" stop-color="#F2CB82"/>
      <stop offset="0.5" stop-color="#E3A752"/>
      <stop offset="1" stop-color="#D6851F"/>
    </linearGradient>
    <filter id="bloomShadow" x="-30%" y="-30%" width="160%" height="160%">
      <feDropShadow dx="0" dy="6" stdDeviation="7" flood-color="#734E16" flood-opacity="0.26"/>
    </filter>
  </defs>

  <g id="camomille-bloom" filter="url(#bloomShadow)">
    <g id="petals" fill="url(#petalFill)">
      <path class="petal" d="M100 4A31 59.52 0 0 1 131 63.52A28.52 36.48 0 0 1 102.48 100L97.52 100A28.52 36.48 0 0 1 69 63.52A31 59.52 0 0 1 100 4Z"/>
      <path class="petal" transform="rotate(45 100 100)" d="M100 4A31 59.52 0 0 1 131 63.52A28.52 36.48 0 0 1 102.48 100L97.52 100A28.52 36.48 0 0 1 69 63.52A31 59.52 0 0 1 100 4Z"/>
      <path class="petal" transform="rotate(90 100 100)" d="M100 4A31 59.52 0 0 1 131 63.52A28.52 36.48 0 0 1 102.48 100L97.52 100A28.52 36.48 0 0 1 69 63.52A31 59.52 0 0 1 100 4Z"/>
      <path class="petal" transform="rotate(135 100 100)" d="M100 4A31 59.52 0 0 1 131 63.52A28.52 36.48 0 0 1 102.48 100L97.52 100A28.52 36.48 0 0 1 69 63.52A31 59.52 0 0 1 100 4Z"/>
      <path class="petal" transform="rotate(180 100 100)" d="M100 4A31 59.52 0 0 1 131 63.52A28.52 36.48 0 0 1 102.48 100L97.52 100A28.52 36.48 0 0 1 69 63.52A31 59.52 0 0 1 100 4Z"/>
      <path class="petal" transform="rotate(225 100 100)" d="M100 4A31 59.52 0 0 1 131 63.52A28.52 36.48 0 0 1 102.48 100L97.52 100A28.52 36.48 0 0 1 69 63.52A31 59.52 0 0 1 100 4Z"/>
      <path class="petal" transform="rotate(270 100 100)" d="M100 4A31 59.52 0 0 1 131 63.52A28.52 36.48 0 0 1 102.48 100L97.52 100A28.52 36.48 0 0 1 69 63.52A31 59.52 0 0 1 100 4Z"/>
      <path class="petal" transform="rotate(315 100 100)" d="M100 4A31 59.52 0 0 1 131 63.52A28.52 36.48 0 0 1 102.48 100L97.52 100A28.52 36.48 0 0 1 69 63.52A31 59.52 0 0 1 100 4Z"/>
    </g>

    <circle id="center" cx="100" cy="100" r="46" fill="url(#centerFill)"/>

    <g id="logo" fill="#FFFFFF" fill-rule="evenodd" transform="translate(100 100) scale(0.632) translate(-48 -48)">
      <path transform="translate(0 42)" d="M32 0.750462L32 5.5244Q32 5.63432 31.9736 5.74101Q31.9471 5.8477 31.8958 5.94489Q31.8444 6.04207 31.7711 6.12404Q31.6979 6.206 31.6071 6.26793L10.393 20.7321Q10.3021 20.794 10.2289 20.876Q10.1556 20.9579 10.1043 21.0551Q10.0529 21.1523 10.0265 21.259Q10 21.3657 10 21.4756L10 22.5881Q10 22.6851 10.0206 22.7798Q10.0413 22.8745 10.0816 22.9626Q10.122 23.0508 10.1802 23.1283Q10.2383 23.2058 10.3117 23.2692L31.7467 41.7812Q31.8692 41.887 32.021 41.9435Q32.1729 42 32.3348 42L36 42L32 54L0.119366 22.6175Q0.0620939 22.5611 0.0310478 22.487Q0 22.4129 0 22.3325L0 21.7131Q0 21.6132 0.0469801 21.525Q0.0939599 21.4369 0.176882 21.3811L31.3771 0.418526Q31.4482 0.379574 31.5261 0.357471Q31.6068 0.349702 31.6871 0.360139Q31.7643 0.384813 31.834 0.426098Q31.8952 0.479214 31.943 0.544653Q31.9783 0.617598 31.9964 0.696579Q32 0.723397 32 0.750462Z"/>
      <path transform="translate(60.002 0)" d="M36 31.6675L36 32.2869Q36 32.3868 35.953 32.475Q35.906 32.5631 35.8231 32.6188L4.62296 53.5815Q4.55191 53.6204 4.47395 53.6426Q4.3933 53.6503 4.31294 53.6399Q4.23576 53.6152 4.16604 53.5739Q4.10485 53.5208 4.05706 53.4554Q4.02178 53.3824 4.00368 53.3034Q4.00004 53.2766 4.00004 53.2496L4.00003 48.4756Q4.00003 48.3657 4.02649 48.259Q4.05295 48.1523 4.10431 48.0551Q4.15567 47.9579 4.22892 47.876Q4.30216 47.794 4.39298 47.7321L25.6071 33.2679Q25.6979 33.206 25.7711 33.124Q25.8444 33.0421 25.8958 32.9449Q25.9471 32.8477 25.9736 32.741Q26 32.6343 26 32.5244L26 31.4119Q26 31.3149 25.9794 31.2202Q25.9587 31.1255 25.9184 31.0374Q25.878 30.9492 25.8199 30.8717Q25.7617 30.7942 25.6883 30.7308L4.2534 12.2188Q4.13081 12.113 3.979 12.0565Q3.82719 12 3.66521 12L0 12L4.00002 0L35.8806 31.3825Q35.9379 31.4389 35.9689 31.513Q36 31.5871 36 31.6675Z"/>
      <path transform="translate(32.002 0)" d="M11.2683 96C8.31138 96 0 96 0 96C0 96 17.8085 10.5194 19.8165 0.880987C19.9178 0.394431 20.4029 0 20.8999 0C23.6886 0 32 0 32 0L12.1492 95.2836Q12.1335 95.359 12.1053 95.4306Q12.077 95.5022 12.037 95.568Q11.9969 95.6337 11.9463 95.6917Q11.8957 95.7497 11.836 95.7983Q11.7763 95.8469 11.7092 95.8846Q11.642 95.9223 11.5695 95.9481Q11.497 95.9739 11.4211 95.9869Q11.3452 96 11.2683 96Z"/>
    </g>
  </g>
</svg>
